G04 MADE WITH FRITZING*
G04 WWW.FRITZING.ORG*
G04 DOUBLE SIDED*
G04 HOLES PLATED*
G04 CONTOUR ON CENTER OF CONTOUR VECTOR*
%ASAXBY*%
%FSLAX23Y23*%
%MOIN*%
%OFA0B0*%
%SFA1.0B1.0*%
%ADD10C,0.078000*%
%ADD11C,0.039370*%
%ADD12C,0.092000*%
%ADD13C,0.070000*%
%ADD14R,0.048000X0.088000*%
%ADD15R,0.141732X0.086614*%
%ADD16R,0.092000X0.092000*%
%ADD17R,0.070000X0.069972*%
%ADD18R,0.078000X0.078000*%
%ADD19C,0.024000*%
%LNCOPPER1*%
G90*
G70*
G54D10*
X135Y718D03*
X135Y618D03*
X135Y518D03*
G54D11*
X535Y1272D03*
X2066Y559D03*
X957Y113D03*
X1595Y172D03*
X1535Y194D03*
X741Y1021D03*
X735Y572D03*
X1435Y162D03*
X1497Y655D03*
G54D10*
X435Y572D03*
X435Y472D03*
X435Y372D03*
X435Y272D03*
X435Y172D03*
X1435Y1472D03*
X1335Y1472D03*
X1235Y1472D03*
X1135Y1472D03*
X1035Y1472D03*
X935Y1472D03*
X835Y1472D03*
X335Y972D03*
X335Y872D03*
X335Y772D03*
X135Y1472D03*
X135Y1372D03*
X135Y1272D03*
X135Y1072D03*
X135Y972D03*
X1935Y62D03*
X1935Y162D03*
X1935Y262D03*
X1935Y362D03*
X1935Y462D03*
X1935Y562D03*
X135Y372D03*
X135Y272D03*
X135Y172D03*
X135Y72D03*
G54D12*
X2035Y372D03*
X2035Y72D03*
G54D10*
X2263Y1278D03*
X2263Y1178D03*
X2263Y1078D03*
X2263Y978D03*
X2263Y878D03*
X2263Y778D03*
X2263Y678D03*
X2263Y578D03*
G54D13*
X2035Y1372D03*
X1935Y1372D03*
X1835Y1372D03*
X1735Y1372D03*
X1635Y1372D03*
X1535Y1372D03*
X1435Y1372D03*
X1335Y1372D03*
X1235Y1372D03*
X1135Y1372D03*
X1035Y1372D03*
X935Y1372D03*
X835Y1372D03*
X735Y1372D03*
X635Y1372D03*
X2035Y772D03*
X1935Y772D03*
X1835Y772D03*
X1735Y772D03*
X1635Y772D03*
X1535Y772D03*
X1435Y772D03*
X1335Y772D03*
X1235Y772D03*
X1135Y772D03*
X1035Y772D03*
X935Y772D03*
X835Y772D03*
X735Y772D03*
X635Y772D03*
G54D10*
X2235Y272D03*
X2235Y172D03*
X335Y1372D03*
X335Y1272D03*
G54D14*
X1053Y172D03*
X1144Y172D03*
X1235Y172D03*
G54D15*
X1144Y416D03*
G54D16*
X2035Y372D03*
G54D17*
X2035Y1372D03*
G54D18*
X2235Y272D03*
G54D19*
X534Y1172D02*
X535Y1253D01*
D02*
X34Y672D02*
X34Y1172D01*
D02*
X34Y1172D02*
X534Y1172D01*
D02*
X108Y632D02*
X34Y672D01*
D02*
X135Y402D02*
X135Y488D01*
D02*
X1214Y1393D02*
X1156Y1451D01*
D02*
X2012Y628D02*
X2054Y574D01*
D02*
X1566Y375D02*
X1905Y364D01*
D02*
X1668Y624D02*
X2012Y628D01*
D02*
X1445Y179D02*
X1566Y375D01*
D02*
X1313Y101D02*
X1668Y624D01*
D02*
X2162Y369D02*
X2072Y372D01*
D02*
X2160Y567D02*
X2162Y369D01*
D02*
X1090Y101D02*
X1313Y101D01*
D02*
X1071Y136D02*
X1090Y101D01*
D02*
X781Y417D02*
X1079Y416D01*
D02*
X603Y658D02*
X781Y417D01*
D02*
X256Y662D02*
X603Y658D01*
D02*
X162Y705D02*
X256Y662D01*
D02*
X1611Y672D02*
X2066Y676D01*
D02*
X2066Y676D02*
X2160Y567D01*
D02*
X1253Y197D02*
X1611Y672D01*
D02*
X2234Y142D02*
X2233Y71D01*
D02*
X2233Y71D02*
X2072Y72D01*
D02*
X635Y1172D02*
X734Y1172D01*
D02*
X734Y1172D02*
X1035Y873D01*
D02*
X1035Y873D02*
X1635Y873D01*
D02*
X1074Y711D02*
X1114Y752D01*
D02*
X264Y972D02*
X268Y709D01*
D02*
X165Y972D02*
X264Y972D01*
D02*
X268Y709D02*
X1074Y711D01*
D02*
X434Y772D02*
X635Y972D01*
D02*
X1635Y873D02*
X1714Y793D01*
D02*
X365Y772D02*
X434Y772D01*
D02*
X635Y972D02*
X635Y1172D01*
D02*
X335Y1073D02*
X165Y1072D01*
D02*
X335Y1002D02*
X335Y1073D01*
D02*
X1435Y47D02*
X1435Y143D01*
D02*
X2109Y711D02*
X1366Y709D01*
D02*
X1366Y709D02*
X753Y576D01*
D02*
X2240Y598D02*
X2109Y711D01*
D02*
X240Y49D02*
X1435Y47D01*
D02*
X164Y66D02*
X240Y49D01*
D02*
X1905Y163D02*
X1614Y171D01*
D02*
X1534Y72D02*
X1535Y175D01*
D02*
X1905Y63D02*
X1534Y72D01*
D02*
X1534Y1172D02*
X1035Y1172D01*
D02*
X1736Y1073D02*
X1534Y1172D01*
D02*
X2135Y1073D02*
X1736Y1073D01*
D02*
X2135Y1172D02*
X2135Y1073D01*
D02*
X2239Y1259D02*
X2135Y1172D01*
D02*
X1035Y1172D02*
X855Y1352D01*
D02*
X1534Y1073D02*
X1035Y1073D01*
D02*
X1736Y972D02*
X1534Y1073D01*
D02*
X2135Y972D02*
X1736Y972D01*
D02*
X2239Y1059D02*
X2135Y972D01*
D02*
X1035Y1073D02*
X755Y1352D01*
D02*
X1912Y873D02*
X1736Y873D01*
D02*
X1534Y972D02*
X1035Y972D01*
D02*
X1736Y873D02*
X1534Y972D01*
D02*
X2135Y873D02*
X1912Y873D01*
D02*
X2239Y959D02*
X2135Y873D01*
D02*
X1035Y972D02*
X655Y1352D01*
D02*
X1534Y1272D02*
X1035Y1273D01*
D02*
X734Y874D02*
X637Y874D01*
D02*
X637Y874D02*
X635Y801D01*
D02*
X740Y1002D02*
X734Y874D01*
D02*
X2332Y1363D02*
X2143Y1363D01*
D02*
X2330Y674D02*
X2332Y1363D01*
D02*
X2143Y1363D02*
X2034Y1272D01*
D02*
X1736Y1172D02*
X1534Y1272D01*
D02*
X2034Y1172D02*
X1736Y1172D01*
D02*
X2034Y1272D02*
X2034Y1172D01*
D02*
X2293Y676D02*
X2330Y674D01*
D02*
X1035Y1273D02*
X956Y1352D01*
D02*
X1314Y1393D02*
X1256Y1451D01*
D02*
X1114Y1393D02*
X1056Y1451D01*
D02*
X1014Y1393D02*
X956Y1451D01*
D02*
X234Y1373D02*
X335Y1472D01*
D02*
X335Y1472D02*
X805Y1472D01*
D02*
X156Y1294D02*
X234Y1373D01*
D02*
X234Y371D02*
X236Y171D01*
D02*
X236Y171D02*
X405Y172D01*
D02*
X165Y372D02*
X234Y371D01*
D02*
X1176Y267D02*
X465Y272D01*
D02*
X1485Y641D02*
X1176Y267D01*
D02*
X1414Y1393D02*
X1356Y1451D01*
G04 End of Copper1*
M02*