; NON-PLATED HOLES START AT T1
; THROUGH (PLATED) HOLES START AT T100
M48
INCH
T1C0.125984
T100C0.052000
T101C0.015748
T102C0.038000
T103C0.036000
%
T1
X022652Y004227
X001268Y008480
X022553Y014660
T100
X020348Y000723
X020348Y003723
T101
X015348Y001937
X007407Y010209
X014972Y006553
X005348Y012723
X020656Y005591
X009571Y001125
X007348Y005723
X015953Y001720
X014348Y001624
T102
X022625Y010782
X022348Y001723
X001348Y000723
X003348Y013723
X001348Y013723
X019348Y000624
X022625Y007782
X019348Y005624
X004348Y005723
X001348Y003723
X022625Y005782
X019348Y003624
X001348Y007182
X004348Y003723
X003348Y008723
X022625Y011782
X022348Y002723
X001348Y001723
X001348Y014723
X019348Y001624
X001348Y005182
X004348Y001723
X022625Y008782
X008348Y014723
X009348Y014723
X003348Y012723
X001348Y012723
X022625Y006782
X019348Y004624
X011348Y014723
X013348Y014723
X004348Y004723
X001348Y009723
X003348Y009723
X010348Y014723
X012348Y014723
X014348Y014723
X001348Y010723
X022625Y012782
X001348Y002723
X019348Y002624
X001348Y006182
X004348Y002723
X003348Y007723
X022625Y009782
T103
X011348Y007723
X007348Y007723
X010348Y007723
X018348Y013723
X017348Y013723
X020348Y013723
X015348Y013723
X019348Y007723
X014348Y013723
X016348Y007723
X008348Y013723
X011348Y013723
X007348Y013723
X010348Y013723
X013348Y007723
X009348Y007723
X012348Y007723
X019348Y013723
X006348Y007723
X016348Y013723
X018348Y007723
X013348Y013723
X017348Y007723
X009348Y013723
X020348Y007723
X012348Y013723
X015348Y007723
X014348Y007723
X006348Y013723
X008348Y007723
T00
M30
