G04 MADE WITH FRITZING*
G04 WWW.FRITZING.ORG*
G04 DOUBLE SIDED*
G04 HOLES PLATED*
G04 CONTOUR ON CENTER OF CONTOUR VECTOR*
%ASAXBY*%
%FSLAX23Y23*%
%MOIN*%
%OFA0B0*%
%SFA1.0B1.0*%
%ADD10C,0.078000*%
%ADD11C,0.039370*%
%ADD12C,0.092000*%
%ADD13C,0.070000*%
%ADD14R,0.092000X0.092000*%
%ADD15R,0.070000X0.069972*%
%ADD16R,0.078000X0.078000*%
%ADD17C,0.024000*%
%LNCOPPER0*%
G90*
G70*
G54D10*
X135Y718D03*
X135Y618D03*
X135Y518D03*
G54D11*
X535Y1272D03*
X2066Y559D03*
X957Y113D03*
X1595Y172D03*
X1535Y194D03*
X741Y1021D03*
X735Y572D03*
X1435Y162D03*
X1497Y655D03*
G54D10*
X435Y572D03*
X435Y472D03*
X435Y372D03*
X435Y272D03*
X435Y172D03*
X1435Y1472D03*
X1335Y1472D03*
X1235Y1472D03*
X1135Y1472D03*
X1035Y1472D03*
X935Y1472D03*
X835Y1472D03*
X335Y972D03*
X335Y872D03*
X335Y772D03*
X135Y1472D03*
X135Y1372D03*
X135Y1272D03*
X135Y1072D03*
X135Y972D03*
X1935Y62D03*
X1935Y162D03*
X1935Y262D03*
X1935Y362D03*
X1935Y462D03*
X1935Y562D03*
X135Y372D03*
X135Y272D03*
X135Y172D03*
X135Y72D03*
G54D12*
X2035Y372D03*
X2035Y72D03*
G54D10*
X2263Y1278D03*
X2263Y1178D03*
X2263Y1078D03*
X2263Y978D03*
X2263Y878D03*
X2263Y778D03*
X2263Y678D03*
X2263Y578D03*
G54D13*
X2035Y1372D03*
X1935Y1372D03*
X1835Y1372D03*
X1735Y1372D03*
X1635Y1372D03*
X1535Y1372D03*
X1435Y1372D03*
X1335Y1372D03*
X1235Y1372D03*
X1135Y1372D03*
X1035Y1372D03*
X935Y1372D03*
X835Y1372D03*
X735Y1372D03*
X635Y1372D03*
X2035Y772D03*
X1935Y772D03*
X1835Y772D03*
X1735Y772D03*
X1635Y772D03*
X1535Y772D03*
X1435Y772D03*
X1335Y772D03*
X1235Y772D03*
X1135Y772D03*
X1035Y772D03*
X935Y772D03*
X835Y772D03*
X735Y772D03*
X635Y772D03*
G54D10*
X2235Y272D03*
X2235Y172D03*
X335Y1372D03*
X335Y1272D03*
G54D14*
X2035Y372D03*
G54D15*
X2035Y1372D03*
G54D16*
X2235Y272D03*
G54D17*
X1240Y1276D02*
X554Y1272D01*
D02*
X1236Y1343D02*
X1240Y1276D01*
D02*
X356Y95D02*
X938Y112D01*
D02*
X163Y162D02*
X356Y95D01*
D02*
X1601Y111D02*
X1907Y250D01*
D02*
X976Y113D02*
X1601Y111D01*
D02*
X1320Y747D02*
X967Y129D01*
D02*
X2139Y559D02*
X2139Y275D01*
D02*
X2139Y275D02*
X2205Y273D01*
D02*
X2085Y559D02*
X2139Y559D01*
D02*
X635Y972D02*
X1034Y972D01*
D02*
X1034Y972D02*
X1236Y873D01*
D02*
X1236Y873D02*
X1534Y873D01*
D02*
X441Y972D02*
X635Y972D01*
D02*
X1534Y873D02*
X1614Y793D01*
D02*
X335Y1073D02*
X441Y972D01*
D02*
X234Y1272D02*
X335Y1073D01*
D02*
X156Y1351D02*
X234Y1272D01*
D02*
X236Y772D02*
X305Y772D01*
D02*
X236Y973D02*
X236Y772D01*
D02*
X234Y1172D02*
X236Y973D01*
D02*
X156Y1251D02*
X234Y1172D01*
D02*
X236Y772D02*
X305Y772D01*
D02*
X234Y273D02*
X236Y772D01*
D02*
X165Y272D02*
X234Y273D01*
D02*
X234Y1373D02*
X314Y1294D01*
D02*
X234Y1472D02*
X234Y1373D01*
D02*
X165Y1472D02*
X234Y1472D01*
D02*
X34Y1472D02*
X105Y1472D01*
D02*
X35Y874D02*
X34Y1472D01*
D02*
X34Y1073D02*
X35Y874D01*
D02*
X105Y1072D02*
X34Y1073D01*
D02*
X34Y1073D02*
X105Y1072D01*
D02*
X34Y873D02*
X34Y1073D01*
D02*
X34Y371D02*
X34Y873D01*
D02*
X105Y372D02*
X34Y371D01*
D02*
X534Y773D02*
X362Y859D01*
D02*
X635Y873D02*
X534Y773D01*
D02*
X1135Y873D02*
X635Y873D01*
D02*
X1214Y793D02*
X1135Y873D01*
D02*
X1935Y872D02*
X1935Y801D01*
D02*
X2136Y772D02*
X2135Y872D01*
D02*
X2135Y872D02*
X1935Y872D01*
D02*
X2232Y777D02*
X2136Y772D01*
D02*
X1989Y676D02*
X2029Y409D01*
D02*
X2022Y746D02*
X1989Y676D01*
D02*
X2136Y274D02*
X2205Y273D01*
D02*
X2136Y772D02*
X2136Y274D01*
D02*
X2134Y874D02*
X2136Y772D01*
D02*
X1936Y874D02*
X2134Y874D01*
D02*
X1935Y801D02*
X1936Y874D01*
D02*
X1714Y752D02*
X1682Y719D01*
D02*
X1682Y719D02*
X1540Y212D01*
D02*
X1753Y695D02*
X1601Y190D01*
D02*
X1886Y709D02*
X1753Y695D01*
D02*
X1917Y749D02*
X1886Y709D01*
D02*
X1435Y743D02*
X1435Y181D01*
D02*
X735Y743D02*
X735Y591D01*
D02*
X436Y1073D02*
X348Y1245D01*
D02*
X1236Y1073D02*
X436Y1073D01*
D02*
X1736Y1073D02*
X1236Y1073D01*
D02*
X1735Y1343D02*
X1736Y1073D01*
D02*
X722Y1142D02*
X1538Y1138D01*
D02*
X436Y1373D02*
X436Y1172D01*
D02*
X436Y1172D02*
X635Y1172D01*
D02*
X635Y1172D02*
X722Y1142D01*
D02*
X365Y1373D02*
X436Y1373D01*
D02*
X1538Y1138D02*
X1535Y1343D01*
D02*
X2135Y1172D02*
X2135Y972D01*
D02*
X1044Y1023D02*
X760Y1021D01*
D02*
X1236Y972D02*
X1044Y1023D01*
D02*
X2135Y972D02*
X1236Y972D01*
D02*
X2232Y1177D02*
X2135Y1172D01*
D02*
X1503Y673D02*
X1526Y745D01*
D02*
X1734Y1472D02*
X1465Y1472D01*
D02*
X1734Y1401D02*
X1734Y1472D01*
D02*
X934Y473D02*
X935Y743D01*
D02*
X465Y472D02*
X934Y473D01*
D02*
X1035Y372D02*
X1035Y743D01*
D02*
X465Y372D02*
X1035Y372D01*
D02*
X434Y772D02*
X365Y772D01*
D02*
X435Y602D02*
X434Y772D01*
G04 End of Copper0*
M02*